<svg xmlns="http://www.w3.org/2000/svg" xmlns:dc="http://purl.org/dc/elements/1.1/" xmlns:ns2="http://creativecommons.org/ns#" xmlns:rdf="http://www.w3.org/1999/02/22-rdf-syntax-ns#" xmlns:xlink="http://www.w3.org/1999/xlink" width="97.0" height="70.0" viewBox="0.0 0.0 97.0 70.0">
<g id="graph0" class="graph" transform="scale(1.0 1.0) rotate(0) translate(4 66)">
<title>G</title>
<polygon fill="white" stroke="none" points="-4,4 -4,-66 93,-66 93,4 -4,4" />

<g id="node1" class="node">
<title>leaf0</title>
<polygon fill="none" stroke="#444443" stroke-width="0" points="89,-62 0,-62 0,0 89,0 89,-62" />
<svg width="81px" height="54px" viewBox="0 0 109.0875 72.223328" version="1.1" preserveAspectRatio="xMinYMin meet" x="4" y="-58">
 <metadata>
  <rdf:RDF>
   <ns2:Work>
    <dc:type rdf:resource="http://purl.org/dc/dcmitype/StillImage" />
    <dc:date>2026-06-22T22:25:51.899214</dc:date>
    <dc:format>image/svg+xml</dc:format>
    <dc:creator>
     <ns2:Agent>
      <dc:title>Matplotlib v3.11.0, https://matplotlib.org/</dc:title>
     </ns2:Agent>
    </dc:creator>
   </ns2:Work>
  </rdf:RDF>
 </metadata>
 <defs>
  <style type="text/css">*{stroke-linejoin: round; stroke-linecap: butt}</style>
 </defs>
 <g id="figure_1">
  <g id="patch_1">
   <path d="M 0 72.223328  L 109.0875 72.223328  L 109.0875 0  L 0 0  z " style="fill: #ffffff" />
  </g>
  <g id="axes_1">
   <g id="patch_2">
    <path d="M 33.11875 44.352  L 74.96875 44.352  L 74.96875 0  L 33.11875 0  z " style="fill: #ffffff" />
   </g>
   <g id="PathCollection_1">
    <defs>
     <path id="ma0ef16246f" d="M 0 1.118034  C 0.296506 1.118034 0.580908 1.000231 0.790569 0.790569  C 1.000231 0.580908 1.118034 0.296506 1.118034 0  C 1.118034 -0.296506 1.000231 -0.580908 0.790569 -0.790569  C 0.580908 -1.000231 0.296506 -1.118034 0 -1.118034  C -0.296506 -1.118034 -0.580908 -1.000231 -0.790569 -0.790569  C -1.000231 -0.580908 -1.118034 -0.296506 -1.118034 0  C -1.118034 0.296506 -1.000231 0.580908 -0.790569 0.790569  C -0.580908 1.000231 -0.296506 1.118034 0 1.118034  z " style="stroke: #4575b4; stroke-opacity: 0.7; stroke-width: 0.3" />
    </defs>
    <g clip-path="url(#p085c2a2ead)">
     <use xlink:href="#ma0ef16246f" x="52.739484" y="35.094058" style="fill: #4575b4; fill-opacity: 0.7; stroke: #4575b4; stroke-opacity: 0.7; stroke-width: 0.3" />
     <use xlink:href="#ma0ef16246f" x="58.509016" y="35.094058" style="fill: #4575b4; fill-opacity: 0.7; stroke: #4575b4; stroke-opacity: 0.7; stroke-width: 0.3" />
     <use xlink:href="#ma0ef16246f" x="53.653183" y="35.094058" style="fill: #4575b4; fill-opacity: 0.7; stroke: #4575b4; stroke-opacity: 0.7; stroke-width: 0.3" />
     <use xlink:href="#ma0ef16246f" x="54.002835" y="35.094058" style="fill: #4575b4; fill-opacity: 0.7; stroke: #4575b4; stroke-opacity: 0.7; stroke-width: 0.3" />
     <use xlink:href="#ma0ef16246f" x="51.754771" y="35.094058" style="fill: #4575b4; fill-opacity: 0.7; stroke: #4575b4; stroke-opacity: 0.7; stroke-width: 0.3" />
     <use xlink:href="#ma0ef16246f" x="53.769754" y="35.094058" style="fill: #4575b4; fill-opacity: 0.7; stroke: #4575b4; stroke-opacity: 0.7; stroke-width: 0.3" />
     <use xlink:href="#ma0ef16246f" x="51.300709" y="35.094058" style="fill: #4575b4; fill-opacity: 0.7; stroke: #4575b4; stroke-opacity: 0.7; stroke-width: 0.3" />
     <use xlink:href="#ma0ef16246f" x="58.34467" y="35.094058" style="fill: #4575b4; fill-opacity: 0.7; stroke: #4575b4; stroke-opacity: 0.7; stroke-width: 0.3" />
     <use xlink:href="#ma0ef16246f" x="57.317216" y="35.094058" style="fill: #4575b4; fill-opacity: 0.7; stroke: #4575b4; stroke-opacity: 0.7; stroke-width: 0.3" />
     <use xlink:href="#ma0ef16246f" x="51.845846" y="35.094058" style="fill: #4575b4; fill-opacity: 0.7; stroke: #4575b4; stroke-opacity: 0.7; stroke-width: 0.3" />
     <use xlink:href="#ma0ef16246f" x="51.259117" y="35.094058" style="fill: #4575b4; fill-opacity: 0.7; stroke: #4575b4; stroke-opacity: 0.7; stroke-width: 0.3" />
     <use xlink:href="#ma0ef16246f" x="51.228741" y="35.094058" style="fill: #4575b4; fill-opacity: 0.7; stroke: #4575b4; stroke-opacity: 0.7; stroke-width: 0.3" />
     <use xlink:href="#ma0ef16246f" x="57.123695" y="35.094058" style="fill: #4575b4; fill-opacity: 0.7; stroke: #4575b4; stroke-opacity: 0.7; stroke-width: 0.3" />
     <use xlink:href="#ma0ef16246f" x="55.741699" y="35.094058" style="fill: #4575b4; fill-opacity: 0.7; stroke: #4575b4; stroke-opacity: 0.7; stroke-width: 0.3" />
    </g>
   </g>
   <g id="matplotlib.axis_1" />
   <g id="matplotlib.axis_2">
    <g id="ytick_1">
     <g id="line2d_1">
      <defs>
       <path id="mfd015a6731" d="M 0 0  L -3.5 0  " style="stroke: #000000; stroke-width: 0.3" />
      </defs>
      <g>
       <use xlink:href="#mfd015a6731" x="33.11875" y="35.094058" style="stroke: #000000; stroke-width: 0.3" />
      </g>
     </g>
     <g id="text_1">
      
      <g style="fill: #444443" transform="translate(8.32375 38.006168) scale(0.08 -0.08)">
       <defs>
        <path id="ArialMT-15" d="M 3222 541  L 3222 0  L 194 0  Q 188 203 259 391  Q 375 700 629 1000  Q 884 1300 1366 1694  Q 2113 2306 2375 2664  Q 2638 3022 2638 3341  Q 2638 3675 2398 3904  Q 2159 4134 1775 4134  Q 1369 4134 1125 3890  Q 881 3647 878 3216  L 300 3275  Q 359 3922 746 4261  Q 1134 4600 1788 4600  Q 2447 4600 2831 4234  Q 3216 3869 3216 3328  Q 3216 3053 3103 2787  Q 2991 2522 2730 2228  Q 2469 1934 1863 1422  Q 1356 997 1212 845  Q 1069 694 975 541  L 3222 541  z " transform="scale(0.015625)" />
        <path id="ArialMT-13" d="M 266 2259  Q 266 3072 433 3567  Q 600 4063 929 4331  Q 1259 4600 1759 4600  Q 2128 4600 2406 4451  Q 2684 4303 2865 4023  Q 3047 3744 3150 3342  Q 3253 2941 3253 2259  Q 3253 1453 3087 958  Q 2922 463 2592 192  Q 2263 -78 1759 -78  Q 1097 -78 719 397  Q 266 969 266 2259  z M 844 2259  Q 844 1131 1108 757  Q 1372 384 1759 384  Q 2147 384 2411 759  Q 2675 1134 2675 2259  Q 2675 3391 2411 3762  Q 2147 4134 1753 4134  Q 1366 4134 1134 3806  Q 844 3388 844 2259  z " transform="scale(0.015625)" />
       </defs>
       <use xlink:href="#ArialMT-15" />
       <use xlink:href="#ArialMT-13" transform="translate(55.609375 0)" />
       <use xlink:href="#ArialMT-13" transform="translate(111.21875 0)" />
       <use xlink:href="#ArialMT-13" transform="translate(166.828125 0)" />
      </g>
     </g>
    </g>
    <g id="ytick_2">
     <g id="line2d_2">
      <g>
       <use xlink:href="#mfd015a6731" x="33.11875" y="13.563961" style="stroke: #000000; stroke-width: 0.3" />
      </g>
     </g>
     <g id="text_2">
      
      <g style="fill: #444443" transform="translate(8.32375 16.476071) scale(0.08 -0.08)">
       <defs>
        <path id="ArialMT-14" d="M 2384 0  L 1822 0  L 1822 3584  Q 1619 3391 1289 3197  Q 959 3003 697 2906  L 697 3450  Q 1169 3672 1522 3987  Q 1875 4303 2022 4600  L 2384 4600  L 2384 0  z " transform="scale(0.015625)" />
       </defs>
       <use xlink:href="#ArialMT-15" />
       <use xlink:href="#ArialMT-14" transform="translate(55.609375 0)" />
       <use xlink:href="#ArialMT-13" transform="translate(111.21875 0)" />
       <use xlink:href="#ArialMT-13" transform="translate(166.828125 0)" />
      </g>
     </g>
    </g>
   </g>
   <g id="line2d_3">
    <path clip-path="url(#p085c2a2ead)" style="fill: none; stroke-dasharray: 3.7,1.6; stroke-dashoffset: 0; stroke: #444443" />
   </g>
   <g id="patch_3">
    <path d="M 33.11875 44.352  L 33.11875 0  " style="fill: none; stroke: #444443; stroke-width: 0.3; stroke-linejoin: miter; stroke-linecap: square" />
   </g>
   <g id="text_3">
    
    <g style="fill: #444443" transform="translate(0 55.737742) scale(0.12 -0.12)">
     <defs>
      <path id="ArialMT-45" d="M 941 0  L 419 0  L 419 4581  L 981 4581  L 981 2947  Q 1338 3394 1891 3394  Q 2197 3394 2470 3270  Q 2744 3147 2920 2923  Q 3097 2700 3197 2384  Q 3297 2069 3297 1709  Q 3297 856 2875 390  Q 2453 -75 1863 -75  Q 1275 -75 941 416  L 941 0  z M 934 1684  Q 934 1088 1097 822  Q 1363 388 1816 388  Q 2184 388 2453 708  Q 2722 1028 2722 1663  Q 2722 2313 2464 2622  Q 2206 2931 1841 2931  Q 1472 2931 1203 2611  Q 934 2291 934 1684  z " transform="scale(0.015625)" />
      <path id="ArialMT-58" d="M 2597 0  L 2597 488  Q 2209 -75 1544 -75  Q 1250 -75 995 37  Q 741 150 617 320  Q 494 491 444 738  Q 409 903 409 1263  L 409 3319  L 972 3319  L 972 1478  Q 972 1038 1006 884  Q 1059 663 1231 536  Q 1403 409 1656 409  Q 1909 409 2131 539  Q 2353 669 2445 892  Q 2538 1116 2538 1541  L 2538 3319  L 3100 3319  L 3100 0  L 2597 0  z " transform="scale(0.015625)" />
      <path id="ArialMT-47" d="M 2575 0  L 2575 419  Q 2259 -75 1647 -75  Q 1250 -75 917 144  Q 584 363 401 755  Q 219 1147 219 1656  Q 219 2153 384 2558  Q 550 2963 881 3178  Q 1213 3394 1622 3394  Q 1922 3394 2156 3267  Q 2391 3141 2538 2938  L 2538 4581  L 3097 4581  L 3097 0  L 2575 0  z M 797 1656  Q 797 1019 1065 703  Q 1334 388 1700 388  Q 2069 388 2326 689  Q 2584 991 2584 1609  Q 2584 2291 2321 2609  Q 2059 2928 1675 2928  Q 1300 2928 1048 2622  Q 797 2316 797 1656  z " transform="scale(0.015625)" />
      <path id="ArialMT-4a" d="M 319 -275  L 866 -356  Q 900 -609 1056 -725  Q 1266 -881 1628 -881  Q 2019 -881 2231 -725  Q 2444 -569 2519 -288  Q 2563 -116 2559 434  Q 2191 0 1641 0  Q 956 0 581 494  Q 206 988 206 1678  Q 206 2153 378 2554  Q 550 2956 876 3175  Q 1203 3394 1644 3394  Q 2231 3394 2613 2919  L 2613 3319  L 3131 3319  L 3131 450  Q 3131 -325 2973 -648  Q 2816 -972 2473 -1159  Q 2131 -1347 1631 -1347  Q 1038 -1347 672 -1080  Q 306 -813 319 -275  z M 784 1719  Q 784 1066 1043 766  Q 1303 466 1694 466  Q 2081 466 2343 764  Q 2606 1063 2606 1700  Q 2606 2309 2336 2618  Q 2066 2928 1684 2928  Q 1309 2928 1046 2623  Q 784 2319 784 1719  z " transform="scale(0.015625)" />
      <path id="ArialMT-48" d="M 2694 1069  L 3275 997  Q 3138 488 2766 206  Q 2394 -75 1816 -75  Q 1088 -75 661 373  Q 234 822 234 1631  Q 234 2469 665 2931  Q 1097 3394 1784 3394  Q 2450 3394 2872 2941  Q 3294 2488 3294 1666  Q 3294 1616 3291 1516  L 816 1516  Q 847 969 1125 678  Q 1403 388 1819 388  Q 2128 388 2347 550  Q 2566 713 2694 1069  z M 847 1978  L 2700 1978  Q 2663 2397 2488 2606  Q 2219 2931 1791 2931  Q 1403 2931 1139 2672  Q 875 2413 847 1978  z " transform="scale(0.015625)" />
      <path id="ArialMT-57" d="M 1650 503  L 1731 6  Q 1494 -44 1306 -44  Q 1000 -44 831 53  Q 663 150 594 308  Q 525 466 525 972  L 525 2881  L 113 2881  L 113 3319  L 525 3319  L 525 4141  L 1084 4478  L 1084 3319  L 1650 3319  L 1650 2881  L 1084 2881  L 1084 941  Q 1084 700 1114 631  Q 1144 563 1211 522  Q 1278 481 1403 481  Q 1497 481 1650 503  z " transform="scale(0.015625)" />
      <path id="ArialMT-42" d="M -97 -1272  L -97 -866  L 3631 -866  L 3631 -1272  L -97 -1272  z " transform="scale(0.015625)" />
      <path id="ArialMT-46" d="M 2588 1216  L 3141 1144  Q 3050 572 2676 248  Q 2303 -75 1759 -75  Q 1078 -75 664 370  Q 250 816 250 1647  Q 250 2184 428 2587  Q 606 2991 970 3192  Q 1334 3394 1763 3394  Q 2303 3394 2647 3120  Q 2991 2847 3088 2344  L 2541 2259  Q 2463 2594 2264 2762  Q 2066 2931 1784 2931  Q 1359 2931 1093 2626  Q 828 2322 828 1663  Q 828 994 1084 691  Q 1341 388 1753 388  Q 2084 388 2306 591  Q 2528 794 2588 1216  z " transform="scale(0.015625)" />
      <path id="ArialMT-4e" d="M 425 0  L 425 4581  L 988 4581  L 988 1969  L 2319 3319  L 3047 3319  L 1778 2088  L 3175 0  L 2481 0  L 1384 1697  L 988 1316  L 988 0  L 425 0  z " transform="scale(0.015625)" />
      <path id="ArialMT-20" d="M 3381 2694  L 356 2694  L 356 3219  L 3381 3219  L 3381 2694  z M 3381 1303  L 356 1303  L 356 1828  L 3381 1828  L 3381 1303  z " transform="scale(0.015625)" />
      <path id="ArialMT-11" d="M 581 0  L 581 641  L 1222 641  L 1222 0  L 581 0  z " transform="scale(0.015625)" />
     </defs>
     <use xlink:href="#ArialMT-45" />
     <use xlink:href="#ArialMT-58" transform="translate(55.609375 0)" />
     <use xlink:href="#ArialMT-47" transform="translate(111.21875 0)" />
     <use xlink:href="#ArialMT-4a" transform="translate(166.828125 0)" />
     <use xlink:href="#ArialMT-48" transform="translate(222.4375 0)" />
     <use xlink:href="#ArialMT-57" transform="translate(278.046875 0)" />
     <use xlink:href="#ArialMT-42" transform="translate(305.828125 0)" />
     <use xlink:href="#ArialMT-45" transform="translate(361.4375 0)" />
     <use xlink:href="#ArialMT-58" transform="translate(417.046875 0)" />
     <use xlink:href="#ArialMT-46" transform="translate(472.65625 0)" />
     <use xlink:href="#ArialMT-4e" transform="translate(522.65625 0)" />
     <use xlink:href="#ArialMT-48" transform="translate(572.65625 0)" />
     <use xlink:href="#ArialMT-57" transform="translate(628.265625 0)" />
     <use xlink:href="#ArialMT-20" transform="translate(656.046875 0)" />
     <use xlink:href="#ArialMT-14" transform="translate(714.453125 0)" />
     <use xlink:href="#ArialMT-11" transform="translate(770.0625 0)" />
     <use xlink:href="#ArialMT-13" transform="translate(797.84375 0)" />
     <use xlink:href="#ArialMT-13" transform="translate(853.453125 0)" />
    </g>
    
    <g style="fill: #444443" transform="translate(41.029687 68.798523) scale(0.12 -0.12)">
     <defs>
      <path id="ArialMT-51" d="M 422 0  L 422 3319  L 928 3319  L 928 2847  Q 1294 3394 1984 3394  Q 2284 3394 2536 3286  Q 2788 3178 2913 3003  Q 3038 2828 3088 2588  Q 3119 2431 3119 2041  L 3119 0  L 2556 0  L 2556 2019  Q 2556 2363 2490 2533  Q 2425 2703 2258 2804  Q 2091 2906 1866 2906  Q 1506 2906 1245 2678  Q 984 2450 984 1813  L 984 0  L 422 0  z " transform="scale(0.015625)" />
      <path id="ArialMT-17" d="M 2069 0  L 2069 1097  L 81 1097  L 81 1613  L 2172 4581  L 2631 4581  L 2631 1613  L 3250 1613  L 3250 1097  L 2631 1097  L 2631 0  L 2069 0  z M 2069 1613  L 2069 3678  L 634 1613  L 2069 1613  z " transform="scale(0.015625)" />
     </defs>
     <use xlink:href="#ArialMT-51" />
     <use xlink:href="#ArialMT-20" transform="translate(55.609375 0)" />
     <use xlink:href="#ArialMT-14" transform="translate(114.015625 0)" />
     <use xlink:href="#ArialMT-17" transform="translate(169.625 0)" />
    </g>
   </g>
  </g>
 </g>
 <defs>
  <clipPath id="p085c2a2ead">
   <rect x="33.11875" y="0" width="41.85" height="44.352" />
  </clipPath>
 </defs>
</svg></g>
</g>
</svg>